<?xml version="1.0" encoding="iso-8859-1"?>
<!-- Generator: Adobe Illustrator 19.0.0, SVG Export Plug-In . SVG Version: 6.00 Build 0)  -->
<svg xmlns="http://www.w3.org/2000/svg" xmlns:xlink="http://www.w3.org/1999/xlink" version="1.1" id="Layer_1" x="0px" y="0px" viewBox="0 0 512 512" style="enable-background:new 0 0 512 512;" xml:space="preserve" width="512px" height="512px">
<g>
	<g>
		<path d="M256,0C114.615,0,0,114.615,0,256c0,89.052,45.481,167.471,114.469,213.333H0V512h256c141.385,0,256-114.615,256-256    S397.385,0,256,0z M95.883,163.556c11.78-20.407,37.875-27.399,58.283-15.616c20.406,11.782,27.399,37.877,15.616,58.283    c-11.783,20.406-37.878,27.399-58.283,15.616C91.092,210.057,84.1,183.963,95.883,163.556z M154.166,364.06    c-20.409,11.785-46.502,4.792-58.283-15.617c-11.783-20.406-4.79-46.501,15.616-58.283c20.407-11.782,46.501-4.79,58.283,15.616    C181.567,326.184,174.572,352.28,154.166,364.06z M256,440.887c-23.563,0-42.665-19.102-42.667-42.667    c0.001-23.563,19.103-42.667,42.667-42.667c23.565-0.001,42.668,19.105,42.667,42.667    C298.668,421.786,279.563,440.887,256,440.887z M227.556,256c0-15.684,12.76-28.444,28.444-28.444s28.444,12.76,28.444,28.444    s-12.76,28.444-28.444,28.444S227.556,271.684,227.556,256z M256,156.444c-23.563,0-42.667-19.103-42.667-42.667    c0-23.563,19.103-42.667,42.667-42.667s42.667,19.103,42.667,42.667C298.667,137.341,279.563,156.444,256,156.444z     M357.834,147.94c20.409-11.786,46.502-4.792,58.283,15.617c11.783,20.406,4.79,46.501-15.616,58.283    c-20.407,11.782-46.5,4.789-58.283-15.616C330.433,185.815,337.428,159.718,357.834,147.94z M416.117,348.443    c-11.78,20.407-37.875,27.398-58.283,15.617c-20.406-11.783-27.398-37.875-15.616-58.284    c11.782-20.409,37.88-27.399,58.283-15.616C420.91,301.942,427.9,328.037,416.117,348.443z" fill="#0566ff"/>
	</g>
</g>
<g>
</g>
<g>
</g>
<g>
</g>
<g>
</g>
<g>
</g>
<g>
</g>
<g>
</g>
<g>
</g>
<g>
</g>
<g>
</g>
<g>
</g>
<g>
</g>
<g>
</g>
<g>
</g>
<g>
</g>
</svg>
