<svg xmlns="http://www.w3.org/2000/svg" viewBox="0 0 357.59 67.79"><defs><style>.cls-1{fill:#fff;}</style></defs><title>Asset 1</title><g id="Layer_2" data-name="Layer 2"><g id="Layer_1-2" data-name="Layer 1"><path class="cls-1" d="M97.56,17.33c-1.75.17-9,1.8-11.48,2.33-2.62.7-26.57,19.2-28.14,23.74a32.32,32.32,0,0,0-.52,6.27l-.18,3.67a72.16,72.16,0,0,0,1.08,9.12c1.57.35,13,0,15.07.4l-.26,4.7c-2-.15-16.52-.11-24.78-.11-4.2,0-17.69.46-21.83.34l.78-4.47c2.27-.17,11.68.41,13.75-1.78,1-1.08.7-2.24.7-8.53V50a47,47,0,0,0-.35-6.47c-.87-2.62-22-29-27.39-33.16C12.43,9.87,2.57,8.88.12,8.36L0,4.33c1.22-.61,12.19.15,22.83-.24,7-.26,22.95,0,24.92.23l-.5,3.55c-2.1.52-12.2.72-14.82,1.42C39.23,19.42,50,32.48,53.51,37.55c1.92-2.8,18.82-14.43,19.34-18.44-2.62-.52-11.31-1.78-12.7-1.78l-.83-4.58c2.38-.37,14.89,0,21.11,0,5.37,0,16.84,0,20.1.27Z"/><path class="cls-1" d="M133.68,65.59c-.77-.11-9.53-.1-12.73-.1l-13.07-.06.5-4.1c2.2-.11,6.31-1,8.18-1.22-1.21-2.75-5.21-11.5-6.09-13.15a126.54,126.54,0,0,0-12.95.7c-.44.77-3.6,3.87-4.15,8.05,1.54.33,4.5,1,6.26,1.19L99,61.09c-1.87-.11-9.34.11-11.1,0s-9.33,0-10.76.24l1.37-4.42c1.76-.22,5.82-1.48,7.36-1.81,2.31-3.3,13-24.25,13.91-26.23-1.43-.33-3.87-1.48-5.41-1.7l-.21-3c1.87.11,11.19.39,12.18.34,2.21-.11,10.44-.07,12.31-.18l-.69,3A50.89,50.89,0,0,0,112,28.51c.77,2.31,3.84,9.77,6.15,15.28,1.76,4,4.69,11.74,7.44,16.26,1.87.33,6.17,1.59,8.15,1.7l.11,1.1Zm-28.82-35-.11-.69c-2,4.62-5.35,11.9-6,13.66H109.6C108.27,40.09,105.86,33.41,104.87,30.54Z"/><path class="cls-1" d="M198.22,54.25c-1.52-.12-8.83-.1-12.57,0-3,.09-10.12-.27-13.51-.13L171.87,50c1.17-.12,8.46-.61,9.87-.84.47-2.22.24-5.37.24-8.06l-.18-4.89c-3.74,0-28.46,1.28-29.51,1.4l-1.81.23c0,6.66.35,8.77.82,11.22,2,.35,9.12.81,10.64,1.05l-.09,4.53c-1.75-.12-12.72,0-16.11,0-4.09,0-14-.09-16.38,0l.32-4.68c1.87-.12,8.94-.81,10.46-1,.23-3,.35-7.83.35-12.86v-6.2c0-2.1-.12-8.18-.23-10.29-1.52-.23-8.59-.71-10.7-.82l-.37-3.54c1.4.12,11.16-.15,16.3-.15,4.79,0,15.66.09,16.95,0l-.38,3.71c-2.22.11-9.59.7-10.87.93-.35,1.75-.7,3.27-.7,8.88l-.17,2.93c2.1,0,28.18-.1,31.43-.57v-4c0-5.15.79-10.7.21-12.22a102.88,102.88,0,0,0-10.48-1.45l.31-3.73c1.4.12,8,.08,12.88.19,5.14,0,12.62.21,14.14,0l-.34,3.07c-1.52.12-8.3,1.83-8.3,1.83a39.84,39.84,0,0,0-.12,7.81c.28,3.83.37,11.35.37,11.35.19,8.38.71,15.15.24,15.5s5.37.78,7,1l.64,1.11Z"/><path class="cls-1" d="M258.51,34.72C259.07,49,246,56.08,229.1,56.08c-7,0-15.62-1.34-22.94-5.74-5.71-3.43-6.66-7.88-6.66-13.44,0-11.5,12.52-21,31.68-20.9,7.29,0,14.32,1.11,20,5.54,5.07,4,5.93,5.92,6.85,10.25Zm-9.4,1c.42-11.81-8.83-15-20.51-14.16-6.11.42-18.55,3.65-18.55,14.16s9.54,16,22.27,14.9c9.85-.86,15-4.49,16.29-9.53Z"/><path class="cls-1" d="M344,43.25l-7.57-.73c.79-3.83.1-33.21,0-36.35L336.05,0c2.1.42,1.79.2,10.68,1.13,5.42.57,6.12.81,7.91.88l-2.33,7.32C350.33,15.19,344.58,41.3,344,43.25Zm-5.23,15.52-4.05-.35,0-8.79,5.13.64,4.6.21-1.28,8.6Z"/><path class="cls-1" d="M329.51,28.92c1,13.37-14.43,24.48-33.76,24.48-8,0-14.89-1-22.83-6.23-6.52-4.32-9.64-8.05-10.45-15.42-1.44-13,14.29-24,36.16-23.86,8.33,0,16.35,1.27,22.84,6.33,5.79,4.51,6.8,8.79,7.86,13.74Zm-10.08,1.9c.8-12.84-11.57-17.52-24.9-16.6-7,.48-20,4.61-20,16.6S285.41,48.64,300,47.38c11.25-1,15.93-5.21,18.49-10.95A18.72,18.72,0,0,0,319.42,30.82Z"/><path class="cls-1" d="M353.3,50.57A4.29,4.29,0,1,1,349,54.86,4.27,4.27,0,0,1,353.3,50.57Zm0,8a3.67,3.67,0,1,0-3.53-3.66A3.56,3.56,0,0,0,353.3,58.52Zm-1.64-6.18h1.89c1.19,0,1.75.47,1.75,1.43A1.29,1.29,0,0,1,354,55.14l1.44,2.21h-.82l-1.36-2.15h-.82v2.15h-.76Zm.76,2.24h.79c.68,0,1.34,0,1.34-.84s-.6-.77-1.12-.77h-1Z"/></g></g></svg>